<svg width="117" height="27" viewBox="0 0 117 27" fill="none" xmlns="http://www.w3.org/2000/svg">
<circle cx="10.3706" cy="12.5161" r="8.85714" stroke="#4197B4" stroke-width="2"/>
<path d="M16.4324 17.7058L23.5132 24.0166" stroke="#4197B4" stroke-width="2"/>
<circle cx="57.5132" cy="10.75" r="1" fill="#4197B4" stroke="#4197B4" stroke-width="2"/>
<path d="M66.2275 10.6071C66.2275 11.7119 65.7114 13.1886 64.8062 14.8751C63.917 16.5317 62.7195 18.27 61.5039 19.8635C60.2911 21.4533 59.0759 22.8786 58.1626 23.9076C57.8615 24.2468 57.5938 24.5424 57.3704 24.786C57.1469 24.5424 56.8792 24.2468 56.5781 23.9076C55.6649 22.8786 54.4497 21.4533 53.2368 19.8635C52.0212 18.27 50.8237 16.5317 49.9345 14.8751C49.0293 13.1886 48.5132 11.7119 48.5132 10.6071C48.5132 5.71548 52.4787 1.75 57.3704 1.75C62.262 1.75 66.2275 5.71548 66.2275 10.6071Z" stroke="#4197B4" stroke-width="2"/>
<circle cx="95.3015" cy="22.8701" r="1" fill="#4197B4" stroke="#4197B4" stroke-width="1.25923"/>
<circle cx="112.413" cy="22.8701" r="1" fill="#4197B4" stroke="#4197B4" stroke-width="1.25923"/>
<path d="M91.2275 2.50027H94.2642C95.1969 2.50027 96.0058 3.14504 96.2138 4.05431L98.5608 14.315L95.4374 18.7964H116.487" stroke="#4197B4" stroke-width="2"/>
<path d="M111.746 4.53738H96.5234L98.5604 14.7225H113.634L114.708 8.01135C115 6.1886 113.592 4.53738 111.746 4.53738Z" stroke="#4197B4" stroke-width="2"/>
</svg>
