<svg width="61" height="59" viewBox="0 0 61 59" fill="none" xmlns="http://www.w3.org/2000/svg">
<path d="M7.375 25V21.5C7.375 10.4543 16.3293 1.5 27.375 1.5H34.375C45.4207 1.5 54.375 10.4543 54.375 21.5V25" stroke="white" stroke-width="3"/>
<path d="M8.35952 24.009L4.35952 26.3424C3.13064 27.0592 2.375 28.3748 2.375 29.7975V38C2.375 39.7778 3.54833 41.3422 5.255 41.84L9.255 43.0067C11.815 43.7533 14.375 41.8333 14.375 39.1667V27.4641C14.375 24.377 11.0261 22.4535 8.35952 24.009Z" stroke="white" stroke-width="3"/>
<path d="M53.3905 24.009L57.3905 26.3424C58.6194 27.0592 59.375 28.3748 59.375 29.7975V38C59.375 39.7778 58.2017 41.3422 56.495 41.84L52.495 43.0067C49.935 43.7533 47.375 41.8333 47.375 39.1667V27.4641C47.375 24.377 50.7239 22.4535 53.3905 24.009Z" stroke="white" stroke-width="3"/>
<path d="M53.375 43.5C53.375 45.3301 53.375 47.9921 51.375 49.4895C48.7083 51.486 42.0417 52.6507 40.375 52.4843" stroke="white" stroke-width="3"/>
<path d="M39.875 52C39.875 52.9227 38.9501 54 37.375 54C35.7999 54 34.875 52.9227 34.875 52C34.875 51.0773 35.7999 50 37.375 50C38.9501 50 39.875 51.0773 39.875 52Z" stroke="white" stroke-width="3"/>
<path d="M27.375 57.5C26.375 56.9872 24.375 55.1 24.375 51.6538C24.375 48.2077 26.375 46.1154 27.375 45.5" stroke="#4197B4" stroke-width="3" stroke-linecap="round"/>
<path d="M30.375 54.5C29.875 54.2436 28.875 53.3 28.875 51.5769C28.875 49.8538 29.875 48.8077 30.375 48.5" stroke="#4197B4" stroke-width="3" stroke-linecap="round"/>
</svg>
