<svg width="77" height="39" viewBox="0 0 77 39" fill="none" xmlns="http://www.w3.org/2000/svg">
<g clip-path="url(#clip0_1156_3693)">
<path d="M3.39552 0.677469C3.02421 0.261461 1.96377 -0.465783 0.852982 0.415538C0.113505 1.03801 0.0600113 1.66048 0.00651723 1.87003C0.00651723 2.07649 -0.100471 2.69896 0.588659 3.47859C1.27779 4.25514 7.84497 11.5153 7.84497 11.5153C7.84497 11.5153 14.0408 18.3101 15.416 19.7091C16.7911 21.1081 19.8119 23.7521 24.4722 23.9092C27.7007 24.014 27.7007 23.9616 28.072 23.9616H35.9105C36.1213 23.9616 37.9747 24.014 39.9351 23.2867C41.8955 22.5595 43.8528 21.1081 45.1775 19.9679C46.5023 18.7754 49.9448 15.2501 50.1556 14.9912C51.7982 13.3334 52.5912 12.7109 54.1268 12.9174C55.7159 13.1762 57.8871 13.5398 61.6978 14.3164C61.8048 14.3688 70.4362 16.1838 70.54 16.2362C70.647 16.2362 72.0756 16.5998 72.8686 15.2501C73.5577 13.9528 72.5508 12.6061 71.7043 12.449C69.2688 11.9313 66.7797 11.3612 64.3441 10.8404C64.1333 10.788 55.4484 8.92059 53.4345 8.92059C52.7989 8.92059 51.3168 8.86821 49.6207 10.2179C47.8208 11.6169 46.2317 13.432 45.9674 13.6415C45.703 13.9004 43.6891 16.0266 43.107 16.5443C41.2001 18.307 39.0824 20.0203 36.0647 20.0203H26.4263C26.0015 20.0203 23.3016 20.0203 21.8195 19.4502C20.1769 18.8278 19.1196 17.9464 17.8484 16.5474C16.5802 15.1946 3.39552 0.677469 3.39552 0.677469Z" fill="white"/>
<path d="M4.82392 33.2434C4.77042 31.946 4.13479 30.8583 2.97051 30.8583C1.91321 30.8583 1.11709 31.792 1.01011 33.2434H4.82392ZM0.0597988 33.6039C0.0597988 31.4776 1.33107 29.9739 2.97051 29.9739C4.77042 29.9739 5.83087 31.4776 5.83087 33.5515V33.9675H1.0636C1.17059 35.5237 2.12404 36.3526 3.23483 36.3526C4.0278 36.3526 4.55959 36.0414 5.08824 35.5761L5.67038 36.1986C5.03475 36.821 4.29212 37.237 3.23483 37.237C1.48841 37.237 0.0566521 35.838 0.0566521 33.6594V33.607L0.0597988 33.6039Z" fill="white"/>
<path d="M8.05558 30.1309H9.06253V31.6871C9.48733 30.701 10.3338 30.0292 11.4981 30.0785V31.117H11.4446C10.1198 31.117 9.06253 32.0507 9.06253 33.8134V37.1322H8.05558V30.1309Z" fill="white"/>
<path d="M18.0621 33.2433C18.0621 31.7395 17.0017 30.8058 15.9444 30.8058C14.8336 30.8058 13.9336 31.6871 13.9336 33.2433V33.2957C13.9336 34.7995 14.8336 35.7332 15.9444 35.7332C17.0552 35.7332 18.0621 34.7995 18.0621 33.2433ZM13.6127 37.5482C14.3018 37.9642 15.0948 38.2231 15.8909 38.2231C17.2157 38.2231 18.0621 37.5482 18.0621 36.1492V35.1107C17.5838 35.8873 16.8443 36.5621 15.7336 36.5621C14.3049 36.5621 12.9267 35.3696 12.9267 33.2957V33.2433C12.9267 31.1694 14.3049 29.9769 15.7336 29.9769C16.8443 29.9769 17.587 30.5994 18.0621 31.3266V30.0817H19.0691V36.0968C19.0691 37.0305 18.8047 37.7547 18.2761 38.2231C17.7474 38.7408 16.9513 38.9996 15.9475 38.9996C14.9941 38.9996 14.0941 38.7408 13.2477 38.2724L13.619 37.5451L13.6127 37.5482Z" fill="white"/>
<path d="M26.6401 33.5515C26.6401 31.9953 25.6866 30.8552 24.4688 30.8552C23.2511 30.8552 22.3511 31.9953 22.3511 33.5515V33.6039C22.3511 35.1601 23.3045 36.3003 24.5223 36.3003C25.7401 36.3003 26.6936 35.1077 26.6936 33.6039L26.6401 33.5515ZM21.3441 33.5515C21.3441 31.53 22.6689 29.9739 24.5223 29.9739C26.3757 29.9739 27.647 31.53 27.647 33.5515V33.6039C27.647 35.6254 26.3222 37.1816 24.4688 37.1816C22.6154 37.1816 21.3441 35.6254 21.3441 33.6039V33.5515Z" fill="white"/>
<path d="M29.9787 30.131H30.9322V31.2188C31.3035 30.5439 31.8856 29.9739 32.9429 29.9739C33.8964 29.9739 34.5855 30.4915 34.9033 31.2188C35.3281 30.5439 36.0141 29.9739 37.0746 29.9739C38.4528 29.9739 39.3528 30.9076 39.3528 32.5161V37.0275H38.3458V32.7226C38.3458 31.4776 37.7637 30.8028 36.8102 30.8028C35.9103 30.8028 35.1173 31.53 35.1173 32.7719V37.0244H34.1104V32.7195C34.1104 31.4746 33.5282 30.7997 32.5748 30.7997C31.6213 30.7997 30.8818 31.6286 30.8818 32.7688V36.969H29.9284V30.1248H29.9819L29.9787 30.131Z" fill="white"/>
<path d="M46.8703 33.5515C46.8703 31.9953 45.9168 30.8552 44.699 30.8552C43.4813 30.8552 42.5813 31.9953 42.5813 33.5515V33.6039C42.5813 35.1601 43.5348 36.3003 44.7525 36.3003C45.9703 36.3003 46.9238 35.1077 46.9238 33.6039V33.5515H46.8703ZM41.5744 33.5515C41.5744 31.53 42.8991 29.9739 44.7525 29.9739C46.6059 29.9739 47.8772 31.53 47.8772 33.5515V33.6039C47.8772 35.6254 46.5525 37.1816 44.699 37.1816C42.8456 37.1816 41.5744 35.6254 41.5744 33.6039V33.5515Z" fill="white"/>
<path d="M50.4701 35.4712V31.0122H49.6236V30.1832H50.4701V28.1617H51.477V30.1832H53.3305V31.0122H51.477V35.3171C51.477 36.0443 51.9019 36.3032 52.484 36.3032C52.7483 36.3032 53.0126 36.2508 53.3305 36.0967V36.9256C53.0126 37.0797 52.6413 37.1845 52.27 37.1845C51.2631 37.1845 50.4701 36.7161 50.4701 35.4742" fill="white"/>
<path d="M55.659 37.0798H56.666V30.131H55.659V37.0798ZM55.6055 28.6795H56.7163V27.5394H55.6055V28.6795Z" fill="white"/>
<path d="M64.3439 33.5515C64.3439 31.9953 63.3905 30.8552 62.1727 30.8552C60.9549 30.8552 60.055 31.9953 60.055 33.5515V33.6039C60.055 35.1601 61.0084 36.3003 62.2262 36.3003C63.444 36.3003 64.3974 35.1077 64.3974 33.6039V33.5515H64.3439ZM59.048 33.5515C59.048 31.53 60.3728 29.9739 62.2262 29.9739C64.0796 29.9739 65.3509 31.53 65.3509 33.5515V33.6039C65.3509 35.6254 64.0261 37.1816 62.1727 37.1816C60.3193 37.1816 59.048 35.6254 59.048 33.6039V33.5515Z" fill="white"/>
<path d="M67.6795 30.131H68.6864V31.2712C69.0577 30.5963 69.7468 30.0262 70.8041 30.0262C72.2327 30.0262 73.1327 31.0123 73.1327 32.5685V37.1323H72.0723V32.8273C72.0723 31.5824 71.4901 30.9075 70.4297 30.9075C69.3692 30.9075 68.6298 31.6841 68.6298 32.8766V37.0768H67.6228L67.6763 30.1279L67.6795 30.131Z" fill="white"/>
<path d="M75.5179 29.9737C75.7287 29.9737 75.8357 29.8689 75.8357 29.7148C75.8357 29.5608 75.7287 29.456 75.5179 29.456H75.0931V29.9737H75.5179ZM74.7753 29.1971H75.5179C75.7287 29.1971 75.8892 29.2495 76.0466 29.3512C76.1535 29.456 76.207 29.5577 76.207 29.7148C76.207 29.9737 76.0466 30.1308 75.8357 30.1832L76.2605 30.8057H75.8892L75.4644 30.2356H75.0931V30.8057H74.7753V29.1971ZM76.8395 30.0261C76.8395 29.2495 76.2039 28.627 75.4109 28.627C74.618 28.627 73.9823 29.2495 73.9823 30.0261C73.9823 30.8026 74.618 31.4251 75.4109 31.4251C76.2039 31.4251 76.8395 30.8026 76.8395 30.0261ZM73.8218 30.0261C73.8218 29.1447 74.5645 28.4699 75.4109 28.4699C76.3109 28.4699 77 29.1447 77 30.0261C77 30.9074 76.2574 31.5822 75.4109 31.5822C74.5645 31.5822 73.8218 30.9074 73.8218 30.0261Z" fill="white"/>
</g>
<defs>
<clipPath id="clip0_1156_3693">
<rect width="77" height="39" fill="white"/>
</clipPath>
</defs>
</svg>
