<svg width="136" height="71" viewBox="0 0 136 71" fill="none" xmlns="http://www.w3.org/2000/svg">
<g clip-path="url(#clip0_1084_16370)">
<path d="M5.99736 1.22341C5.34154 0.472464 3.46855 -0.840305 1.50664 0.750593C0.200551 1.87423 0.106068 2.99787 0.0115847 3.37613C0.0115847 3.74882 -0.177381 4.87246 1.03978 6.2798C2.25695 7.68157 13.8561 20.787 13.8561 20.787C13.8561 20.787 24.7995 33.0525 27.2283 35.5779C29.657 38.1033 34.9925 42.876 43.2237 43.1597C48.926 43.3488 48.926 43.2543 49.5818 43.2543H63.4264C63.7987 43.2543 67.0723 43.3488 70.5348 42.0361C73.9974 40.7233 77.4543 38.1033 79.7942 36.0452C82.134 33.8924 88.2143 27.5288 88.5866 27.0616C91.4878 24.0689 92.8884 22.9453 95.6006 23.318C98.4073 23.7852 102.242 24.4416 108.973 25.8434C109.162 25.938 124.407 29.2143 124.59 29.3089C124.779 29.3089 127.302 29.9653 128.703 27.5288C129.92 25.187 128.142 22.7562 126.647 22.4725C122.345 21.538 117.949 20.5089 113.647 19.5688C113.275 19.4742 97.9349 16.1033 94.3779 16.1033C93.2552 16.1033 90.6375 16.0087 87.6418 18.4452C84.4627 20.9706 81.656 24.2469 81.1892 24.6252C80.7223 25.0924 77.1653 28.9306 76.1371 29.8651C72.7691 33.0469 69.0287 36.1397 63.6987 36.1397H46.6751C45.9248 36.1397 41.1562 36.1397 38.5384 35.1106C35.6372 33.987 33.7698 32.3961 31.5245 29.8707C29.2847 27.4287 5.99736 1.22341 5.99736 1.22341Z" fill="white"/>
<path d="M8.5202 60.0083C8.42572 57.6665 7.30304 55.7029 5.24664 55.7029C3.37921 55.7029 1.97309 57.3884 1.78412 60.0083H8.5202ZM0.105655 60.6592C0.105655 56.821 2.35102 54.1064 5.24664 54.1064C8.42572 54.1064 10.2987 56.821 10.2987 60.5646V61.3156H1.8786C2.06757 64.1247 3.75159 65.621 5.7135 65.621C7.11407 65.621 8.05335 65.0592 8.98706 64.2192L10.0153 65.3429C8.89258 66.4665 7.58093 67.2174 5.7135 67.2174C2.62891 67.2174 0.100098 64.692 0.100098 60.7593V60.6647L0.105655 60.6592Z" fill="white"/>
<path d="M14.228 54.3902H16.0065V57.1993C16.7568 55.4193 18.2519 54.2066 20.3083 54.2956V56.1702H20.2138C17.874 56.1702 16.0065 57.8557 16.0065 61.0375V67.0284H14.228V54.3902Z" fill="white"/>
<path d="M31.9019 60.0081C31.9019 57.2936 30.0289 55.6082 28.1615 55.6082C26.1996 55.6082 24.61 57.199 24.61 60.0081V60.1027C24.61 62.8173 26.1996 64.5027 28.1615 64.5027C30.1234 64.5027 31.9019 62.8173 31.9019 60.0081ZM24.0431 67.7791C25.2603 68.53 26.6609 68.9973 28.067 68.9973C30.4069 68.9973 31.9019 67.7791 31.9019 65.2537V63.3791C31.0571 64.7808 29.751 65.999 27.7891 65.999C25.2659 65.999 22.8315 63.8463 22.8315 60.1027V60.0081C22.8315 56.2645 25.2659 54.1118 27.7891 54.1118C29.751 54.1118 31.0627 55.2355 31.9019 56.5482V54.3009H33.6804V65.1591C33.6804 66.8446 33.2136 68.1518 32.2798 68.9973C31.3461 69.9318 29.94 70.399 28.1671 70.399C26.483 70.399 24.8935 69.9318 23.3984 69.0863L24.0543 67.7735L24.0431 67.7791Z" fill="white"/>
<path d="M47.0526 60.5646C47.0526 57.7555 45.3685 55.6973 43.2177 55.6973C41.0668 55.6973 39.4772 57.7555 39.4772 60.5646V60.6592C39.4772 63.4683 41.1613 65.5264 43.3121 65.5264C45.463 65.5264 47.147 63.3737 47.147 60.6592L47.0526 60.5646ZM37.6987 60.5646C37.6987 56.9155 40.0386 54.1064 43.3121 54.1064C46.5857 54.1064 48.8311 56.9155 48.8311 60.5646V60.6592C48.8311 64.3082 46.4912 67.1173 43.2177 67.1173C39.9441 67.1173 37.6987 64.3082 37.6987 60.6592V60.5646Z" fill="white"/>
<path d="M52.9493 54.3901H54.6333V56.3537C55.2891 55.1355 56.3173 54.1064 58.1848 54.1064C59.8688 54.1064 61.0859 55.041 61.6473 56.3537C62.3976 55.1355 63.6092 54.1064 65.4822 54.1064C67.9165 54.1064 69.506 55.7919 69.506 58.6956V66.8392H67.7275V59.0683C67.7275 56.821 66.6993 55.6028 65.0153 55.6028C63.4258 55.6028 62.0252 56.9155 62.0252 59.1573V66.8336H60.2467V59.0627C60.2467 56.8154 59.2185 55.5972 57.5345 55.5972C55.8505 55.5972 54.5444 57.0935 54.5444 59.1517V66.7335H52.8604V54.379H52.9548L52.9493 54.3901Z" fill="white"/>
<path d="M82.784 60.5646C82.784 57.7555 81.1 55.6973 78.9491 55.6973C76.7982 55.6973 75.2087 57.7555 75.2087 60.5646V60.6592C75.2087 63.4683 76.8927 65.5264 79.0436 65.5264C81.1945 65.5264 82.8785 63.3737 82.8785 60.6592V60.5646H82.784ZM73.4302 60.5646C73.4302 56.9155 75.77 54.1064 79.0436 54.1064C82.3171 54.1064 84.5625 56.9155 84.5625 60.5646V60.6592C84.5625 64.3082 82.2227 67.1173 78.9491 67.1173C75.6755 67.1173 73.4302 64.3082 73.4302 60.6592V60.5646Z" fill="white"/>
<path d="M89.142 64.0299V55.9808H87.647V54.4845H89.142V50.8354H90.9205V54.4845H94.1941V55.9808H90.9205V63.7518C90.9205 65.0645 91.6708 65.5318 92.699 65.5318C93.1659 65.5318 93.6328 65.4372 94.1941 65.1591V66.6554C93.6328 66.9336 92.9769 67.1227 92.3211 67.1227C90.5426 67.1227 89.142 66.2772 89.142 64.0354" fill="white"/>
<path d="M98.3069 66.9337H100.085V54.39H98.3069V66.9337ZM98.2124 51.7701H100.174V49.7119H98.2124V51.7701Z" fill="white"/>
<path d="M113.646 60.5646C113.646 57.7555 111.962 55.6973 109.811 55.6973C107.661 55.6973 106.071 57.7555 106.071 60.5646V60.6592C106.071 63.4683 107.755 65.5264 109.906 65.5264C112.057 65.5264 113.741 63.3737 113.741 60.6592V60.5646H113.646ZM104.292 60.5646C104.292 56.9155 106.632 54.1064 109.906 54.1064C113.179 54.1064 115.425 56.9155 115.425 60.5646V60.6592C115.425 64.3082 113.085 67.1173 109.811 67.1173C106.538 67.1173 104.292 64.3082 104.292 60.6592V60.5646Z" fill="white"/>
<path d="M119.538 54.3903H121.316V56.4485C121.972 55.2302 123.189 54.2012 125.056 54.2012C127.58 54.2012 129.169 55.9812 129.169 58.7903V67.0285H127.296V59.2576C127.296 57.0103 126.268 55.7921 124.395 55.7921C122.522 55.7921 121.216 57.1938 121.216 59.3466V66.9284H119.438L119.532 54.3847L119.538 54.3903Z" fill="white"/>
<path d="M133.382 54.1061C133.755 54.1061 133.944 53.917 133.944 53.6389C133.944 53.3608 133.755 53.1716 133.382 53.1716H132.632V54.1061H133.382ZM132.071 52.7044H133.382C133.755 52.7044 134.038 52.7989 134.316 52.9825C134.505 53.1716 134.6 53.3552 134.6 53.6389C134.6 54.1061 134.316 54.3898 133.944 54.4844L134.694 55.608H134.038L133.288 54.579H132.632V55.608H132.071V52.7044ZM135.717 54.2007C135.717 52.7989 134.594 51.6753 133.193 51.6753C131.793 51.6753 130.67 52.7989 130.67 54.2007C130.67 55.6025 131.793 56.7261 133.193 56.7261C134.594 56.7261 135.717 55.6025 135.717 54.2007ZM130.387 54.2007C130.387 52.6098 131.698 51.3916 133.193 51.3916C134.783 51.3916 136 52.6098 136 54.2007C136 55.7916 134.688 57.0098 133.193 57.0098C131.698 57.0098 130.387 55.7916 130.387 54.2007Z" fill="white"/>
</g>
<defs>
<clipPath id="clip0_1084_16370">
<rect width="136" height="70.4" fill="white"/>
</clipPath>
</defs>
</svg>
