<svg width="187" height="87" viewBox="0 0 187 87" fill="none" xmlns="http://www.w3.org/2000/svg">
<rect width="187" height="87" fill="#4197B4"/>
<g clip-path="url(#clip0_3182_4506)">
<path d="M58.3955 24.6775C58.0242 24.2614 56.9637 23.5342 55.853 24.4155C55.1135 25.038 55.06 25.6605 55.0065 25.87C55.0065 26.0765 54.8995 26.6989 55.5886 27.4786C56.2778 28.2551 62.8449 35.5152 62.8449 35.5152C62.8449 35.5152 69.0408 42.31 70.4159 43.7091C71.791 45.1081 74.8119 47.752 79.4722 47.9092C82.7007 48.014 82.7007 47.9616 83.072 47.9616H90.9105C91.1213 47.9616 92.9747 48.014 94.9351 47.2867C96.8955 46.5595 98.8528 45.1081 100.178 43.9679C101.502 42.7754 104.945 39.2501 105.156 38.9912C106.798 37.3334 107.591 36.7109 109.127 36.9173C110.716 37.1762 112.887 37.5398 116.698 38.3164C116.805 38.3687 125.436 40.1838 125.54 40.2362C125.647 40.2362 127.076 40.5998 127.869 39.2501C128.558 37.9527 127.551 36.6061 126.704 36.4489C124.269 35.9312 121.78 35.3612 119.344 34.8404C119.133 34.788 110.448 32.9206 108.434 32.9206C107.799 32.9206 106.317 32.8682 104.621 34.2179C102.821 35.6169 101.232 37.432 100.967 37.6415C100.703 37.9004 98.6891 40.0266 98.107 40.5443C96.2001 42.307 94.0823 44.0203 91.0646 44.0203H81.4263C81.0015 44.0203 78.3016 44.0203 76.8195 43.4502C75.1769 42.8277 74.1196 41.9464 72.8483 40.5474C71.5802 39.1946 58.3955 24.6775 58.3955 24.6775Z" fill="white"/>
<path d="M59.8239 57.2433C59.7704 55.946 59.1348 54.8582 57.9705 54.8582C56.9132 54.8582 56.1171 55.7919 56.0101 57.2433H59.8239ZM55.0598 57.6039C55.0598 55.4776 56.3311 53.9738 57.9705 53.9738C59.7704 53.9738 60.8309 55.4776 60.8309 57.5515V57.9675H56.0636C56.1706 59.5237 57.124 60.3526 58.2348 60.3526C59.0278 60.3526 59.5596 60.0414 60.0882 59.5761L60.6704 60.1985C60.0347 60.821 59.2921 61.237 58.2348 61.237C56.4884 61.237 55.0566 59.838 55.0566 57.6593V57.607L55.0598 57.6039Z" fill="white"/>
<path d="M63.0557 54.1309H64.0626V55.6871C64.4874 54.701 65.3339 54.0292 66.4982 54.0785V55.117H66.4447C65.1199 55.117 64.0626 56.0507 64.0626 57.8134V61.1322H63.0557V54.1309Z" fill="white"/>
<path d="M73.0622 57.2433C73.0622 55.7395 72.0017 54.8058 70.9445 54.8058C69.8337 54.8058 68.9337 55.6871 68.9337 57.2433V57.2957C68.9337 58.7995 69.8337 59.7332 70.9445 59.7332C72.0552 59.7332 73.0622 58.7995 73.0622 57.2433ZM68.6127 61.5482C69.3019 61.9642 70.0948 62.2231 70.891 62.2231C72.2157 62.2231 73.0622 61.5482 73.0622 60.1492V59.1107C72.5839 59.8873 71.8444 60.5621 70.7336 60.5621C69.305 60.5621 67.9268 59.3696 67.9268 57.2957V57.2433C67.9268 55.1694 69.305 53.9769 70.7336 53.9769C71.8444 53.9769 72.587 54.5993 73.0622 55.3266V54.0816H74.0691V60.0968C74.0691 61.0305 73.8048 61.7547 73.2762 62.2231C72.7475 62.7408 71.9514 62.9996 70.9476 62.9996C69.9941 62.9996 69.0942 62.7408 68.2477 62.2724L68.619 61.5451L68.6127 61.5482Z" fill="white"/>
<path d="M81.6402 57.5515C81.6402 55.9953 80.6867 54.8551 79.4689 54.8551C78.2511 54.8551 77.3512 55.9953 77.3512 57.5515V57.6039C77.3512 59.1601 78.3046 60.3002 79.5224 60.3002C80.7402 60.3002 81.6936 59.1077 81.6936 57.6039L81.6402 57.5515ZM76.3442 57.5515C76.3442 55.53 77.669 53.9738 79.5224 53.9738C81.3758 53.9738 82.6471 55.53 82.6471 57.5515V57.6039C82.6471 59.6254 81.3223 61.1815 79.4689 61.1815C77.6155 61.1815 76.3442 59.6254 76.3442 57.6039V57.5515Z" fill="white"/>
<path d="M84.9788 54.131H85.9323V55.2188C86.3036 54.5439 86.8857 53.9738 87.943 53.9738C88.8965 53.9738 89.5856 54.4915 89.9034 55.2188C90.3282 54.5439 91.0142 53.9738 92.0746 53.9738C93.4529 53.9738 94.3529 54.9075 94.3529 56.5161V61.0275H93.3459V56.7226C93.3459 55.4776 92.7638 54.8028 91.8103 54.8028C90.9104 54.8028 90.1174 55.53 90.1174 56.7719V61.0244H89.1104V56.7195C89.1104 55.4745 88.5283 54.7997 87.5748 54.7997C86.6214 54.7997 85.8819 55.6286 85.8819 56.7688V60.9689H84.9285V54.1248H84.982L84.9788 54.131Z" fill="white"/>
<path d="M101.87 57.5515C101.87 55.9953 100.917 54.8551 99.6991 54.8551C98.4814 54.8551 97.5814 55.9953 97.5814 57.5515V57.6039C97.5814 59.1601 98.5349 60.3002 99.7526 60.3002C100.97 60.3002 101.924 59.1077 101.924 57.6039V57.5515H101.87ZM96.5745 57.5515C96.5745 55.53 97.8992 53.9738 99.7526 53.9738C101.606 53.9738 102.877 55.53 102.877 57.5515V57.6039C102.877 59.6254 101.553 61.1815 99.6991 61.1815C97.8457 61.1815 96.5745 59.6254 96.5745 57.6039V57.5515Z" fill="white"/>
<path d="M105.47 59.4712V55.0122H104.624V54.1832H105.47V52.1617H106.477V54.1832H108.33V55.0122H106.477V59.3171C106.477 60.0443 106.902 60.3032 107.484 60.3032C107.748 60.3032 108.013 60.2508 108.33 60.0967V60.9256C108.013 61.0797 107.641 61.1845 107.27 61.1845C106.263 61.1845 105.47 60.7161 105.47 59.4742" fill="white"/>
<path d="M110.659 61.0798H111.666V54.1309H110.659V61.0798ZM110.605 52.6795H111.716V51.5394H110.605V52.6795Z" fill="white"/>
<path d="M119.344 57.5515C119.344 55.9953 118.391 54.8551 117.173 54.8551C115.955 54.8551 115.055 55.9953 115.055 57.5515V57.6039C115.055 59.1601 116.008 60.3002 117.226 60.3002C118.444 60.3002 119.398 59.1077 119.398 57.6039V57.5515H119.344ZM114.048 57.5515C114.048 55.53 115.373 53.9738 117.226 53.9738C119.08 53.9738 120.351 55.53 120.351 57.5515V57.6039C120.351 59.6254 119.026 61.1815 117.173 61.1815C115.319 61.1815 114.048 59.6254 114.048 57.6039V57.5515Z" fill="white"/>
<path d="M122.679 54.131H123.686V55.2711C124.058 54.5963 124.747 54.0262 125.804 54.0262C127.233 54.0262 128.133 55.0123 128.133 56.5685V61.1322H127.072V56.8273C127.072 55.5824 126.49 54.9075 125.43 54.9075C124.369 54.9075 123.63 55.6841 123.63 56.8766V61.0768H122.623L122.676 54.1279L122.679 54.131Z" fill="white"/>
<path d="M130.518 53.9736C130.729 53.9736 130.836 53.8689 130.836 53.7148C130.836 53.5607 130.729 53.4559 130.518 53.4559H130.093V53.9736H130.518ZM129.775 53.1971H130.518C130.729 53.1971 130.889 53.2495 131.046 53.3512C131.153 53.4559 131.207 53.5576 131.207 53.7148C131.207 53.9736 131.046 54.1308 130.836 54.1832L131.26 54.8057H130.889L130.464 54.2356H130.093V54.8057H129.775V53.1971ZM131.839 54.026C131.839 53.2495 131.204 52.627 130.411 52.627C129.618 52.627 128.982 53.2495 128.982 54.026C128.982 54.8026 129.618 55.425 130.411 55.425C131.204 55.425 131.839 54.8026 131.839 54.026ZM128.822 54.026C128.822 53.1447 129.564 52.4698 130.411 52.4698C131.311 52.4698 132 53.1447 132 54.026C132 54.9073 131.257 55.5822 130.411 55.5822C129.564 55.5822 128.822 54.9073 128.822 54.026Z" fill="white"/>
</g>
<defs>
<clipPath id="clip0_3182_4506">
<rect width="77" height="39" fill="white" transform="translate(55 24)"/>
</clipPath>
</defs>
</svg>
