<svg width="118" height="60" viewBox="0 0 118 60" fill="none" xmlns="http://www.w3.org/2000/svg">
<g clip-path="url(#clip0_1488_20362)">
<path d="M5.65939 1.04246C5.09519 0.402452 3.48387 -0.716385 1.79605 0.639494C0.672425 1.59714 0.591142 2.55479 0.509859 2.87717C0.509859 3.1948 0.347292 4.15245 1.39441 5.35188C2.44153 6.54657 12.4202 17.716 12.4202 17.716C12.4202 17.716 21.8347 28.1695 23.9242 30.3219C26.0137 32.4742 30.6038 36.5418 37.685 36.7836C42.5906 36.9448 42.5906 36.8642 43.1548 36.8642H55.0652C55.3856 36.8642 58.2018 36.9448 61.1806 35.826C64.1594 34.7071 67.1334 32.4742 69.1463 30.7201C71.1593 28.8854 76.3901 23.4619 76.7105 23.0636C79.2063 20.5131 80.4112 19.5554 82.7445 19.8731C85.1591 20.2713 88.4583 20.8307 94.2485 22.0254C94.4111 22.106 107.526 24.8983 107.684 24.9789C107.847 24.9789 110.017 25.5384 111.222 23.4619C112.269 21.466 110.739 19.3942 109.453 19.1525C105.752 18.356 101.97 17.4789 98.2696 16.6777C97.9493 16.5971 84.7527 13.7242 81.6926 13.7242C80.7268 13.7242 78.4748 13.6436 75.8976 15.7201C73.1627 17.8724 70.7481 20.6648 70.3465 20.9872C69.9448 21.3854 66.8848 24.6566 66.0002 25.453C63.1027 28.1648 59.8848 30.8007 55.2995 30.8007H40.6542C40.0087 30.8007 35.9063 30.8007 33.6543 29.9236C31.1584 28.966 29.5519 27.6101 27.6202 25.4578C25.6933 23.3765 5.65939 1.04246 5.65939 1.04246Z" fill="white"/>
<path d="M7.82995 51.1433C7.74867 49.1474 6.78283 47.4739 5.01373 47.4739C3.40719 47.4739 2.1975 48.9104 2.03494 51.1433H7.82995ZM0.590963 51.698C0.590963 48.4268 2.52263 46.1133 5.01373 46.1133C7.74867 46.1133 9.35999 48.4268 9.35999 51.6174V52.2574H2.11622C2.27878 54.6515 3.72754 55.9268 5.41536 55.9268C6.62026 55.9268 7.42832 55.448 8.23159 54.7321L9.11614 55.6898C8.1503 56.6474 7.0219 57.2874 5.41536 57.2874C2.7617 57.2874 0.586182 55.1351 0.586182 51.7833V51.7027L0.590963 51.698Z" fill="white"/>
<path d="M12.7405 46.355H14.2705V48.7491C14.916 47.2321 16.2022 46.1986 17.9713 46.2744V47.8721H17.89C15.8771 47.8721 14.2705 49.3086 14.2705 52.0203V57.1262H12.7405V46.355Z" fill="white"/>
<path d="M27.945 51.1434C27.945 48.8299 26.3337 47.3934 24.7272 47.3934C23.0394 47.3934 21.6719 48.7493 21.6719 51.1434V51.224C21.6719 53.5376 23.0394 54.974 24.7272 54.974C26.415 54.974 27.945 53.5376 27.945 51.1434ZM21.1842 57.7664C22.2313 58.4064 23.4362 58.8046 24.6459 58.8046C26.6588 58.8046 27.945 57.7664 27.945 55.6141V54.0164C27.2183 55.2111 26.0946 56.2493 24.4068 56.2493C22.2361 56.2493 20.1418 54.4146 20.1418 51.224V51.1434C20.1418 47.9529 22.2361 46.1182 24.4068 46.1182C26.0946 46.1182 27.223 47.0758 27.945 48.1947V46.2794H29.4751V55.5335C29.4751 56.9699 29.0734 58.084 28.2702 58.8046C27.4669 59.6011 26.2572 59.9993 24.732 59.9993C23.2832 59.9993 21.9157 59.6011 20.6295 58.8805L21.1937 57.7617L21.1842 57.7664Z" fill="white"/>
<path d="M40.9792 51.6174C40.9792 49.2233 39.5304 47.4692 37.68 47.4692C35.8296 47.4692 34.4622 49.2233 34.4622 51.6174V51.698C34.4622 54.0921 35.9109 55.8462 37.7613 55.8462C39.6117 55.8462 41.0604 54.0115 41.0604 51.698L40.9792 51.6174ZM32.9321 51.6174C32.9321 48.5074 34.9451 46.1133 37.7613 46.1133C40.5775 46.1133 42.5092 48.5074 42.5092 51.6174V51.698C42.5092 54.808 40.4962 57.2021 37.68 57.2021C34.8638 57.2021 32.9321 54.808 32.9321 51.698V51.6174Z" fill="white"/>
<path d="M46.0521 46.3551H47.5008V48.0286C48.065 46.9903 48.9496 46.1133 50.5561 46.1133C52.0049 46.1133 53.052 46.9097 53.5349 48.0286C54.1804 46.9903 55.2227 46.1133 56.8341 46.1133C58.9283 46.1133 60.2958 47.5498 60.2958 50.0245V56.9651H58.7657V50.3421C58.7657 48.4268 57.8812 47.3886 56.4324 47.3886C55.065 47.3886 53.8601 48.5074 53.8601 50.418V56.9603H52.33V50.3374C52.33 48.4221 51.4455 47.3838 49.9967 47.3838C48.548 47.3838 47.4243 48.6591 47.4243 50.4132V56.875H45.9756V46.3456H46.0569L46.0521 46.3551Z" fill="white"/>
<path d="M71.7187 51.6174C71.7187 49.2233 70.2699 47.4692 68.4195 47.4692C66.5691 47.4692 65.2017 49.2233 65.2017 51.6174V51.698C65.2017 54.0921 66.6504 55.8462 68.5008 55.8462C70.3512 55.8462 71.8 54.0115 71.8 51.698V51.6174H71.7187ZM63.6716 51.6174C63.6716 48.5074 65.6846 46.1133 68.5008 46.1133C71.317 46.1133 73.2487 48.5074 73.2487 51.6174V51.698C73.2487 54.808 71.2358 57.2021 68.4195 57.2021C65.6033 57.2021 63.6716 54.808 63.6716 51.698V51.6174Z" fill="white"/>
<path d="M77.1885 54.5709V47.711H75.9023V46.4357H77.1885V43.3257H78.7186V46.4357H81.5348V47.711H78.7186V54.3339C78.7186 55.4527 79.3641 55.851 80.2486 55.851C80.6502 55.851 81.0519 55.7704 81.5348 55.5333V56.8086C81.0519 57.0457 80.4877 57.2068 79.9235 57.2068C78.3934 57.2068 77.1885 56.4862 77.1885 54.5757" fill="white"/>
<path d="M85.073 57.0458H86.603V46.3552H85.073V57.0458ZM84.9917 44.1223H86.6795V42.3682H84.9917V44.1223Z" fill="white"/>
<path d="M98.2695 51.6174C98.2695 49.2233 96.8207 47.4692 94.9703 47.4692C93.1199 47.4692 91.7525 49.2233 91.7525 51.6174V51.698C91.7525 54.0921 93.2012 55.8462 95.0516 55.8462C96.902 55.8462 98.3507 54.0115 98.3507 51.698V51.6174H98.2695ZM90.2224 51.6174C90.2224 48.5074 92.2354 46.1133 95.0516 46.1133C97.8678 46.1133 99.7995 48.5074 99.7995 51.6174V51.698C99.7995 54.808 97.7865 57.2021 94.9703 57.2021C92.1541 57.2021 90.2224 54.808 90.2224 51.698V51.6174Z" fill="white"/>
<path d="M103.338 46.3555H104.868V48.1096C105.432 47.0714 106.479 46.1943 108.085 46.1943C110.256 46.1943 111.624 47.7114 111.624 50.1055V57.1267H110.012V50.5038C110.012 48.5885 109.128 47.5502 107.516 47.5502C105.905 47.5502 104.782 48.7449 104.782 50.5796V57.0414H103.251L103.333 46.3508L103.338 46.3555Z" fill="white"/>
<path d="M115.248 46.1133C115.568 46.1133 115.731 45.9521 115.731 45.7151C115.731 45.4781 115.568 45.3169 115.248 45.3169H114.603V46.1133H115.248ZM114.12 44.9186H115.248C115.568 44.9186 115.812 44.9992 116.051 45.1557C116.214 45.3169 116.295 45.4733 116.295 45.7151C116.295 46.1133 116.051 46.3551 115.731 46.4357L116.376 47.3934H115.812L115.167 46.5163H114.603V47.3934H114.12V44.9186ZM117.256 46.1939C117.256 44.9992 116.29 44.0416 115.085 44.0416C113.881 44.0416 112.915 44.9992 112.915 46.1939C112.915 47.3886 113.881 48.3463 115.085 48.3463C116.29 48.3463 117.256 47.3886 117.256 46.1939ZM112.671 46.1939C112.671 44.838 113.799 43.7998 115.085 43.7998C116.453 43.7998 117.5 44.838 117.5 46.1939C117.5 47.5498 116.372 48.588 115.085 48.588C113.799 48.588 112.671 47.5498 112.671 46.1939Z" fill="white"/>
</g>
<defs>
<clipPath id="clip0_1488_20362">
<rect width="117" height="60" fill="white" transform="translate(0.5)"/>
</clipPath>
</defs>
</svg>
