<svg width="32" height="23" viewBox="0 0 32 23" fill="none" xmlns="http://www.w3.org/2000/svg">
<path d="M31.4929 8.06892C31.5625 6.03323 31.1217 4.01277 30.2114 2.19515C29.5938 1.44934 28.7366 0.946032 27.7893 0.772934C23.871 0.413859 19.9365 0.266687 16.0026 0.332046C12.0831 0.26372 8.16277 0.406144 4.25823 0.758712C3.48628 0.900531 2.7719 1.26622 2.20226 1.81115C0.934875 2.9916 0.794055 5.01115 0.653235 6.71781C0.448922 9.78634 0.448922 12.8653 0.653235 15.9338C0.693974 16.8944 0.835588 17.8479 1.0757 18.7782C1.24549 19.4965 1.58902 20.1611 2.07552 20.7125C2.64903 21.2863 3.38006 21.6727 4.17374 21.8218C7.20971 22.2003 10.2687 22.3571 13.3271 22.2911C18.2558 22.3622 22.5789 22.2911 27.6907 21.8929C28.5039 21.753 29.2555 21.366 29.8453 20.7836C30.2395 20.3852 30.534 19.8977 30.7043 19.3613C31.2079 17.8006 31.4552 16.1672 31.4365 14.5258C31.4929 13.7294 31.4929 8.92225 31.4929 8.06892ZM12.8201 15.3791V6.57559L21.1567 10.9987C18.819 12.3071 15.7351 13.7862 12.8201 15.3791Z" fill="white"/>
</svg>
