<svg width="31" height="25" viewBox="0 0 31 25" fill="none" xmlns="http://www.w3.org/2000/svg">
<path d="M30.5 3.19079C29.3725 3.67148 28.1801 3.98925 26.96 4.13421C28.2473 3.37847 29.2119 2.18956 29.675 0.788024C28.4653 1.49568 27.1411 1.99427 25.76 2.26211C24.8368 1.27826 23.6075 0.623362 22.2647 0.400119C20.922 0.176875 19.5418 0.397918 18.3407 1.02858C17.1396 1.65924 16.1854 2.66385 15.6279 3.88485C15.0703 5.10584 14.9409 6.47417 15.26 7.77521C12.8141 7.65364 10.4217 7.02778 8.23798 5.93829C6.0543 4.8488 4.12827 3.32006 2.585 1.45136C2.04371 2.38029 1.75928 3.43228 1.76 4.50273C1.75808 5.49683 2.00633 6.47597 2.48263 7.35298C2.95894 8.22999 3.64853 8.97764 4.49 9.52938C3.51197 9.50323 2.55483 9.24532 1.7 8.77759V8.8513C1.70733 10.2442 2.20399 11.5918 3.10597 12.6662C4.00795 13.7406 5.25988 14.4759 6.65 14.7477C6.11488 14.9077 5.55931 14.9921 5 14.9983C4.61284 14.9938 4.22663 14.9593 3.845 14.8951C4.24086 16.0932 5.00693 17.1403 6.03661 17.8907C7.06629 18.641 8.30836 19.0572 9.59 19.0815C7.4258 20.755 4.75383 21.6683 2 21.6759C1.4986 21.6775 0.997603 21.648 0.5 21.5874C3.31164 23.3715 6.58822 24.3185 9.935 24.3145C12.2445 24.3381 14.5357 23.9092 16.6747 23.0528C18.8136 22.1965 20.7575 20.9298 22.3928 19.3269C24.0281 17.724 25.3219 15.817 26.1988 13.7171C27.0757 11.6173 27.5181 9.36683 27.5 7.09713C27.5 6.84654 27.5 6.5812 27.5 6.31586C28.677 5.45324 29.6922 4.39575 30.5 3.19079Z" fill="white"/>
</svg>
