<svg width="19" height="23" viewBox="0 0 19 23" fill="none" xmlns="http://www.w3.org/2000/svg">
<path d="M16.2584 5.02045C16.1183 4.9437 15.9818 4.85957 15.8496 4.76837C15.4651 4.4991 15.1125 4.18181 14.7995 3.82334C14.0165 2.87418 13.724 1.91127 13.6163 1.23709H13.6206C13.5306 0.677495 13.5678 0.31543 13.5734 0.31543H10.0067V14.9255C10.0067 15.1216 10.0067 15.3155 9.99887 15.507C9.99887 15.5309 9.99671 15.5529 9.99541 15.5785C9.99541 15.5891 9.99541 15.6001 9.99325 15.6111C9.99325 15.6138 9.99325 15.6166 9.99325 15.6193C9.95565 16.1435 9.79702 16.6499 9.53131 17.0939C9.2656 17.538 8.90096 17.906 8.46945 18.1657C8.01973 18.4367 7.51109 18.5789 6.99369 18.5782C5.33188 18.5782 3.98504 17.1428 3.98504 15.37C3.98504 13.5973 5.33188 12.1618 6.99369 12.1618C7.30826 12.1615 7.62089 12.214 7.91999 12.3172L7.92431 8.47015C7.01634 8.34591 6.09391 8.42235 5.21522 8.69465C4.33653 8.96695 3.52065 9.4292 2.81905 10.0522C2.20428 10.6181 1.68745 11.2932 1.2918 12.0473C1.14124 12.3222 0.573166 13.4272 0.504375 15.2206C0.46111 16.2385 0.749687 17.2931 0.88727 17.7289V17.7381C0.9738 17.9948 1.3091 18.8706 1.85554 19.6089C2.29617 20.2012 2.81675 20.7215 3.40053 21.153V21.1438L3.40918 21.153C5.13589 22.3959 7.05036 22.3143 7.05036 22.3143C7.38177 22.3001 8.49195 22.3143 9.75269 21.6814C11.151 20.9797 11.9471 19.9343 11.9471 19.9343C12.4557 19.3097 12.8601 18.5978 13.1429 17.8293C13.4657 16.9306 13.5734 15.8526 13.5734 15.4218V7.67085C13.6167 7.69835 14.193 8.10212 14.193 8.10212C14.193 8.10212 15.0232 8.66585 16.3186 9.03295C17.2479 9.29419 18.5 9.34919 18.5 9.34919V5.59837C18.0613 5.64879 17.1705 5.50213 16.2584 5.02045Z" fill="white"/>
</svg>
