<svg width="24" height="23" viewBox="0 0 24 23" fill="none" xmlns="http://www.w3.org/2000/svg">
<path d="M0.5 2.87099C0.5 2.13023 0.759016 1.51912 1.27703 1.03765C1.79504 0.556163 2.46848 0.31543 3.2973 0.31543C4.11133 0.31543 4.76994 0.552452 5.27317 1.02654C5.79118 1.51543 6.05019 2.15245 6.05019 2.93765C6.05019 3.64876 5.79859 4.24134 5.29537 4.71543C4.77736 5.20432 4.09653 5.44876 3.2529 5.44876H3.2307C2.41666 5.44876 1.75805 5.20432 1.25483 4.71543C0.751601 4.22654 0.5 3.61172 0.5 2.87099ZM0.78861 22.3154V7.47099H5.71718V22.3154H0.78861ZM8.44788 22.3154H13.3764V14.0265C13.3764 13.508 13.4357 13.108 13.5541 12.8265C13.7613 12.3228 14.0758 11.8969 14.4976 11.5488C14.9194 11.2006 15.4485 11.0265 16.0849 11.0265C17.7426 11.0265 18.5714 12.1451 18.5714 14.3821V22.3154H23.5V13.8043C23.5 11.6117 22.982 9.94876 21.9459 8.81543C20.9099 7.6821 19.5409 7.11543 17.8388 7.11543C15.9295 7.11543 14.4421 7.93765 13.3764 9.5821V9.62654H13.3542L13.3764 9.5821V7.47099H8.44788C8.47747 7.94505 8.49228 9.41912 8.49228 11.8932C8.49228 14.3673 8.47747 17.8413 8.44788 22.3154Z" fill="white"/>
</svg>
