<svg width="26" height="25" viewBox="0 0 26 25" fill="none" xmlns="http://www.w3.org/2000/svg">
<path d="M19.675 4.46743C19.3783 4.46743 19.0883 4.55188 18.8416 4.71011C18.595 4.86834 18.4027 5.09324 18.2892 5.35637C18.1756 5.61949 18.1459 5.90903 18.2038 6.18836C18.2617 6.46769 18.4046 6.72428 18.6143 6.92566C18.8241 7.12705 19.0914 7.2642 19.3824 7.31976C19.6733 7.37532 19.9749 7.34681 20.249 7.23782C20.5231 7.12883 20.7574 6.94426 20.9222 6.70745C21.087 6.47064 21.175 6.19223 21.175 5.90743C21.175 5.52552 21.017 5.15925 20.7357 4.8892C20.4544 4.61914 20.0728 4.46743 19.675 4.46743ZM25.425 7.37143C25.4007 6.37579 25.2064 5.39071 24.85 4.45543C24.5322 3.65519 24.0375 2.93056 23.4 2.33143C22.781 1.71634 22.0245 1.24444 21.1875 0.95143C20.2158 0.598823 19.1886 0.408082 18.15 0.38743C16.825 0.31543 16.4 0.31543 13 0.31543C9.6 0.31543 9.175 0.31543 7.85 0.38743C6.81144 0.408082 5.78418 0.598823 4.8125 0.95143C3.9771 1.24741 3.22117 1.7189 2.6 2.33143C1.95928 2.92564 1.46772 3.65196 1.1625 4.45543C0.795201 5.38824 0.596512 6.37441 0.575 7.37143C0.5 8.64343 0.5 9.05143 0.5 12.3154C0.5 15.5794 0.5 15.9874 0.575 17.2594C0.596512 18.2564 0.795201 19.2426 1.1625 20.1754C1.46772 20.9789 1.95928 21.7052 2.6 22.2994C3.22117 22.912 3.9771 23.3835 4.8125 23.6794C5.78418 24.032 6.81144 24.2228 7.85 24.2434C9.175 24.3154 9.6 24.3154 13 24.3154C16.4 24.3154 16.825 24.3154 18.15 24.2434C19.1886 24.2228 20.2158 24.032 21.1875 23.6794C22.0245 23.3864 22.781 22.9145 23.4 22.2994C24.0403 21.7025 24.5354 20.9773 24.85 20.1754C25.2064 19.2401 25.4007 18.2551 25.425 17.2594C25.425 15.9874 25.5 15.5794 25.5 12.3154C25.5 9.05143 25.5 8.64343 25.425 7.37143ZM23.175 17.1154C23.1659 17.8772 23.0222 18.6319 22.75 19.3474C22.5504 19.8697 22.2298 20.3415 21.8125 20.7274C21.4071 21.124 20.9165 21.4312 20.375 21.6274C19.6296 21.8887 18.8435 22.0267 18.05 22.0354C16.8 22.0954 16.3375 22.1074 13.05 22.1074C9.7625 22.1074 9.3 22.1074 8.05 22.0354C7.22611 22.0502 6.40574 21.9285 5.625 21.6754C5.10723 21.4691 4.63919 21.1628 4.25 20.7754C3.83511 20.3899 3.51855 19.9177 3.325 19.3954C3.01982 18.6696 2.85055 17.8978 2.825 17.1154C2.825 15.9154 2.75 15.4714 2.75 12.3154C2.75 9.15943 2.75 8.71543 2.825 7.51543C2.8306 6.7367 2.97869 5.96496 3.2625 5.23543C3.48256 4.72892 3.82033 4.27742 4.25 3.91543C4.62977 3.50283 5.09911 3.17514 5.625 2.95543C6.38694 2.69148 7.19 2.55353 8 2.54743C9.25 2.54743 9.7125 2.47543 13 2.47543C16.2875 2.47543 16.75 2.47543 18 2.54743C18.7935 2.55617 19.5796 2.69413 20.325 2.95543C20.893 3.15781 21.4029 3.48685 21.8125 3.91543C22.2221 4.28404 22.5422 4.73471 22.75 5.23543C23.0278 5.96615 23.1716 6.73757 23.175 7.51543C23.2375 8.71543 23.25 9.15943 23.25 12.3154C23.25 15.4714 23.2375 15.9154 23.175 17.1154ZM13 6.15943C11.7323 6.1618 10.4937 6.52486 9.44082 7.20273C8.38793 7.8806 7.56797 8.84287 7.08454 9.96793C6.60111 11.093 6.4759 12.3304 6.72474 13.5237C6.97358 14.7171 7.5853 15.8129 8.48259 16.6726C9.3799 17.5323 10.5225 18.1174 11.7661 18.354C13.0096 18.5906 14.2983 18.468 15.4693 18.0017C16.6403 17.5354 17.6411 16.7464 18.3452 15.7343C19.0492 14.7222 19.425 13.5325 19.425 12.3154C19.4267 11.5056 19.2615 10.7034 18.939 9.95498C18.6166 9.2066 18.1432 8.5268 17.5461 7.95469C16.949 7.38258 16.2399 6.92944 15.4597 6.62135C14.6796 6.31325 13.8436 6.15626 13 6.15943ZM13 16.3114C12.1767 16.3114 11.372 16.0771 10.6874 15.638C10.0029 15.1989 9.4694 14.5748 9.15435 13.8446C8.8393 13.1145 8.75687 12.311 8.91748 11.5358C9.07809 10.7607 9.47453 10.0487 10.0567 9.48983C10.6388 8.93098 11.3805 8.5504 12.1879 8.39621C12.9954 8.24203 13.8323 8.32116 14.5929 8.62361C15.3535 8.92605 16.0036 9.43823 16.461 10.0954C16.9184 10.7525 17.1625 11.5251 17.1625 12.3154C17.1625 12.8402 17.0548 13.3598 16.8456 13.8446C16.6365 14.3295 16.3299 14.77 15.9433 15.141C15.5568 15.5121 15.0979 15.8064 14.5929 16.0073C14.0879 16.2081 13.5466 16.3114 13 16.3114Z" fill="white"/>
</svg>
