<svg width="79" height="31" viewBox="0 0 79 31" fill="none" xmlns="http://www.w3.org/2000/svg">
<path d="M78.3014 21.5558C78.1445 19.865 77.9484 18.1867 77.4919 16.5493C77.1574 15.3019 76.7214 14.0841 76.1883 12.9081C75.3777 11.1565 74.3522 9.51327 73.1357 8.01642C72.1835 6.84163 71.1103 5.77086 69.934 4.82189C68.1019 3.34892 66.0409 2.18786 63.8333 1.38513C62.6116 0.927846 61.3516 0.580441 60.0685 0.347028C59.1306 0.192573 58.1847 0.0917478 57.2354 0.0450362C55.4129 -0.0607154 53.5842 0.0448423 51.7858 0.359613C50.6494 0.574318 49.5344 0.890144 48.4539 1.30334C46.7987 1.89204 45.2189 2.67557 43.7478 3.63751C42.3097 4.57885 40.9783 5.67483 39.7775 6.90596C38.704 8.00676 37.7511 9.21954 36.935 10.5236C35.9933 12.0151 35.2527 13.625 34.7326 15.3115C34.6635 15.538 34.7326 15.626 34.9632 15.626C35.9567 15.626 36.9502 15.626 37.9437 15.626C38.0158 15.6365 38.089 15.6181 38.1477 15.5748C38.2064 15.5316 38.2458 15.4669 38.2574 15.3948C38.4502 14.7593 38.7039 14.1441 39.0151 13.5577C39.6526 12.242 40.4676 11.0205 41.4371 9.92747C42.5978 8.59056 43.937 7.42081 45.4169 6.4514C46.6246 5.67626 47.905 5.02145 49.2398 4.4963C50.5602 3.97717 51.9405 3.6268 53.3482 3.45348C54.2408 3.3418 55.1381 3.22069 56.0307 3.25844C56.9797 3.28784 57.9262 3.37292 58.8653 3.51325C60.1967 3.72702 61.5054 4.06455 62.7745 4.52147C64.1415 5.02715 65.4438 5.69402 66.6538 6.50802C67.9191 7.35374 69.0715 8.35803 70.083 9.4965C70.9196 10.4258 71.6558 11.4412 72.2792 12.5259C73.1942 14.0882 73.8864 15.7712 74.3357 17.5261C74.7533 19.1321 74.9922 20.7795 75.0479 22.4382C75.1073 23.8093 75.0591 25.183 74.9036 26.5466C74.7481 27.7883 74.5086 29.018 74.1867 30.2271C74.0785 30.6172 74.1098 30.6848 74.5271 30.6864C75.3899 30.6864 76.2527 30.6864 77.1123 30.6943C77.3649 30.6943 77.4825 30.6251 77.5406 30.364C77.7904 29.3527 77.9769 28.3267 78.099 27.2921C78.2182 26.0197 78.4002 24.7551 78.3767 23.4747C78.3578 22.833 78.3578 22.196 78.3014 21.5558Z" fill="white"/>
<path d="M12.0184 20.7802C11.876 20.1682 11.5826 19.6019 11.165 19.1334C10.3007 18.1503 9.14769 17.7178 7.8896 17.5951C6.6181 17.4453 5.32938 17.5658 4.10748 17.949C3.11151 18.2713 2.15812 18.7133 1.26815 19.2655C0.962254 19.4574 0.926172 19.6571 1.09873 19.9733C1.40241 20.5166 1.67579 21.0763 1.91759 21.65C2.05093 21.9756 2.15446 21.9441 2.3882 21.7664C3.69648 20.7739 5.1334 20.1494 6.81818 20.2391C7.34062 20.2524 7.84494 20.4338 8.25666 20.7566C8.66609 21.0837 8.76492 21.543 8.64414 22.0259C8.5406 22.4411 8.20647 22.6551 7.80645 22.7557C6.38679 23.1206 4.90437 23.1867 3.51451 23.7089C2.35839 24.143 1.31835 24.6825 0.719107 25.8449C0.119867 27.0072 0.312816 28.7421 1.18971 29.7299C1.93798 30.5667 2.89645 30.9017 3.99924 30.9772C5.85814 31.1046 7.40173 30.5446 8.54845 29.0331C8.60335 28.9608 8.63629 28.8585 8.74923 28.8963C8.86218 28.934 8.86219 29.0331 8.86219 29.1259C8.86219 29.4924 8.88572 29.8604 8.86219 30.2269C8.83865 30.5934 8.96414 30.6909 9.30455 30.6846C10.1532 30.6689 11.0019 30.6658 11.8505 30.6846C12.1643 30.6846 12.2207 30.562 12.2192 30.2914C12.2113 28.8522 12.2192 27.4146 12.2192 25.977C12.2192 25.8464 12.2192 25.7143 12.2192 25.5838C12.1282 23.9826 12.3933 22.3719 12.0184 20.7802ZM6.69895 28.1586C6.32149 28.3096 5.92308 28.4014 5.51774 28.4307C4.90438 28.3788 4.41024 28.3174 4.12631 27.7811C3.9756 27.4708 3.93403 27.1185 4.00837 26.7815C4.08271 26.4445 4.26858 26.1427 4.53573 25.9251C5.40793 25.2802 6.44326 25.1465 7.46762 24.9814C7.73586 24.9373 8.01039 24.9483 8.27393 24.8461C8.50609 24.7564 8.65668 24.8461 8.63942 25.1198C8.5704 26.1925 7.95704 27.5939 6.69895 28.1586V28.1586Z" fill="white"/>
<path d="M49.7344 17.6482C48.8418 17.4909 47.9414 17.4343 47.0676 17.7127C46.2003 17.9796 45.4695 18.5725 45.0283 19.3673C44.9765 19.4586 44.9389 19.5687 44.8071 19.5498C44.6754 19.5309 44.6503 19.3925 44.6393 19.2808C44.6393 18.9285 44.611 18.5746 44.6393 18.2239C44.6597 17.925 44.5608 17.8354 44.2659 17.8401C43.4042 17.8558 42.5425 17.8558 41.6807 17.8401C41.3466 17.8322 41.2211 17.925 41.2227 18.2805C41.2384 20.267 41.2227 22.2552 41.2227 24.2417C41.2227 26.2424 41.2227 28.2416 41.2227 30.2423C41.2227 30.5568 41.3137 30.6874 41.6478 30.6811C42.6 30.6654 43.5537 30.6717 44.5059 30.6811C44.7899 30.6811 44.8981 30.5836 44.8965 30.291C44.8965 28.3171 44.8965 26.3431 44.8965 24.3691C44.884 23.8614 44.9545 23.355 45.1052 22.8702C45.717 21.0236 47.4943 20.1963 49.2418 21.0063C49.4567 21.1054 49.4928 21.0283 49.5242 20.8757C49.7061 19.9823 49.874 19.0858 50.0638 18.2018C50.1171 17.892 50.034 17.7017 49.7344 17.6482Z" fill="white"/>
<path d="M37.6619 17.8343C36.7614 17.8595 35.861 17.8627 34.9606 17.8343C34.5606 17.8202 34.4774 17.9696 34.4806 18.333C34.4931 20.3069 34.4806 22.2793 34.4806 24.2517C34.4806 26.2634 34.4806 28.2752 34.4806 30.2869C34.4806 30.6015 34.5731 30.6927 34.8806 30.6864C35.69 30.6659 36.4979 30.6864 37.3073 30.6738C38.1168 30.6612 38.1199 30.8484 38.1183 29.8606C38.1121 26.006 38.1152 22.1519 38.1278 18.2983C38.1309 17.9366 38.0258 17.8249 37.6619 17.8343Z" fill="white"/>
<path d="M71.5547 21.665C71.5679 20.7805 71.3106 19.9132 70.8174 19.1798C69.8197 17.7501 68.2086 17.2389 66.6148 17.4308C65.9555 17.5055 65.3183 17.7146 64.7426 18.0455C64.1669 18.3763 63.6648 18.8217 63.2673 19.3544C63.1214 19.5432 62.9974 19.5337 62.8704 19.3544C62.7229 19.1437 62.6178 18.8826 62.4311 18.7253C61.0931 17.5267 59.5338 17.1524 57.7972 17.5723C57.3189 17.6839 56.8677 17.8904 56.4701 18.1795C56.1039 18.4518 55.778 18.7748 55.5022 19.1389C55.463 19.1893 55.4254 19.2522 55.3454 19.2239C55.2654 19.1956 55.2748 19.1216 55.2748 19.0666C55.2748 18.7662 55.2748 18.4657 55.2748 18.1637C55.2748 17.8617 55.1838 17.7202 54.8403 17.7312C54.0308 17.7564 53.2214 17.7391 52.4119 17.7391C51.4958 17.7391 51.4707 17.7595 51.4707 18.6828V26.6872C51.4707 27.8905 51.4707 29.0937 51.4707 30.2954C51.4707 30.61 51.5742 30.8035 51.9131 30.8035C52.9578 30.8035 54.0026 30.8035 55.0505 30.8035C55.2073 30.8035 55.2967 30.7484 55.3093 30.5864C55.3218 30.4244 55.3407 30.2718 55.3407 30.1145C55.3407 28.0871 55.3313 26.0596 55.3564 24.0338C55.3689 22.9768 55.6152 22.0016 56.4121 21.2026C56.8607 20.7543 57.3956 20.6678 57.9321 20.7024C58.2394 20.7062 58.5384 20.8027 58.7902 20.9792C59.4773 21.5187 59.6514 22.2847 59.664 23.0586C59.7032 25.4902 59.6828 27.9219 59.664 30.3552C59.664 30.6965 59.7565 30.8082 60.1063 30.8003C61.0193 30.7751 61.9339 30.7909 62.8484 30.7893C63.4179 30.7893 63.4116 30.7893 63.421 30.2246C63.4602 27.9911 63.3284 25.7561 63.4979 23.5241C63.5794 22.4577 63.8853 21.4998 64.872 20.9367C66.0172 20.2824 67.2486 20.8817 67.5388 21.9638C67.5733 22.096 67.5545 22.2878 67.7584 22.3303C67.7694 22.4876 67.7819 22.6449 67.7929 22.8022C67.7349 22.8258 67.7286 22.8745 67.7286 22.9296C67.7286 25.4263 67.7286 27.9235 67.7286 30.4212C67.7286 30.7169 67.8463 30.8003 68.1286 30.7956C69.1091 30.7814 70.0879 30.7767 71.0668 30.7956C71.4401 30.7956 71.5719 30.6776 71.5703 30.2986C71.5688 27.4186 71.5954 24.5418 71.5547 21.665Z" fill="white"/>
<path d="M33.2863 11.9834C32.7637 11.7275 32.2067 11.5495 31.6329 11.4549C30.4877 11.2977 29.3677 11.3275 28.2273 11.7538C26.737 12.3106 25.9589 13.4148 25.4601 14.7942C25.1652 15.6074 25.162 16.4772 25.2358 17.336C25.2624 17.6505 25.1401 17.7701 24.842 17.7654C24.3981 17.7654 23.9541 17.7654 23.5102 17.7654C22.4121 17.7654 21.314 17.7654 20.216 17.7654C19.8897 17.7654 19.7375 17.6553 19.7595 17.3045C19.7846 16.927 19.7297 16.5432 19.772 16.1689C19.8677 15.3132 20.2426 14.6353 21.0458 14.5079C21.5726 14.4025 22.1189 14.4573 22.6145 14.6652C23.0678 14.8697 23.2137 14.8036 23.3988 14.3207C23.6341 13.7042 23.9259 13.1128 24.1973 12.5151C24.3542 12.1549 24.2271 12.0762 23.9887 11.9708C23.2896 11.6665 22.5496 11.4672 21.7925 11.3794C20.769 11.2498 19.7296 11.3953 18.7806 11.801C17.4551 12.3641 16.6456 13.4478 16.2252 14.8241C15.9868 15.5995 16.0197 16.3969 16.0025 17.1928C15.9899 17.7654 16.0025 17.7654 15.4424 17.7654C15.0518 17.7654 14.6581 17.7764 14.2675 17.7654C13.9537 17.7528 13.7969 17.8692 13.7969 18.19C13.7969 18.9104 13.7969 19.6292 13.7969 20.348C13.7969 20.6249 13.9083 20.7696 14.2345 20.7413C14.6753 20.7035 15.1209 20.7224 15.5648 20.7255C15.866 20.7255 15.9977 20.8687 15.993 21.1974C15.9523 24.2677 16.026 27.3316 15.9523 30.4114C15.9523 30.608 15.9993 30.7668 16.2566 30.7653C17.3013 30.7574 18.3461 30.7653 19.394 30.7542C19.4724 30.7542 19.623 30.8172 19.5963 30.6268C19.6585 30.4968 19.6798 30.3509 19.6575 30.2085C19.6575 27.2074 19.6575 24.2058 19.6575 21.2037C19.6575 21.0621 19.6795 20.919 19.6904 20.7774H24.8938C25.0083 20.7774 25.1291 20.8136 25.2358 20.7428C25.2958 20.888 25.3153 21.0467 25.2922 21.2021C25.2922 23.9284 25.2922 26.6485 25.2922 29.3622C25.2922 29.7665 25.3032 30.1723 25.3095 30.5765C25.2342 30.8911 25.4883 30.7637 25.5903 30.7653C26.555 30.7747 27.5213 30.7527 28.4861 30.7747C28.872 30.7826 28.9677 30.6489 28.9661 30.2745C28.952 27.2703 28.9661 24.2661 28.952 21.2619C28.952 20.8749 29.09 20.7649 29.4571 20.7743C30.2415 20.7963 31.0258 20.7853 31.8101 20.7822C32.2557 20.7822 32.3263 20.7035 32.3278 20.2521C32.3278 19.5993 32.3106 18.945 32.3278 18.2923C32.3419 17.9116 32.1835 17.7764 31.8243 17.7795C31.0289 17.7874 30.232 17.7669 29.4383 17.7874C29.0665 17.7968 28.941 17.6851 28.9457 17.2966C28.9457 16.7949 29.0445 16.2947 28.9771 15.7914L29.0194 15.6011C29.1591 15.579 29.1904 15.4548 29.2438 15.3573C29.5371 14.8162 29.9481 14.4906 30.6007 14.4859C31.0828 14.4778 31.5631 14.5468 32.0235 14.6904C32.2902 14.7753 32.4737 14.7549 32.6008 14.434C32.8549 13.7875 33.1671 13.1631 33.4463 12.5245C33.5545 12.2933 33.531 12.0967 33.2863 11.9834Z" fill="white"/>
</svg>
