<svg width="91" height="43" viewBox="0 0 91 43" fill="none" xmlns="http://www.w3.org/2000/svg">
<path d="M89.0152 32.7197H66.5762V7.35388H77.723C79.7097 7.35388 81.5676 8.33733 82.6847 9.98026L89.0152 19.2908V32.7197Z" stroke="white" stroke-width="3" stroke-linejoin="round"/>
<path d="M66.5752 32.7199V7.50037C66.5752 4.18666 63.8889 1.50037 60.5752 1.50037H33.5508C30.2371 1.50037 27.5508 4.18666 27.5508 7.50037V32.7199H66.5752Z" stroke="white" stroke-width="3" stroke-linejoin="round"/>
<path d="M38.7711 32.7191C41.1958 32.7191 43.1613 34.6847 43.1613 37.1094C43.1613 39.534 41.1958 41.4996 38.7711 41.4996C36.3464 41.4996 34.3809 39.534 34.3809 37.1094C34.3809 34.6847 36.3464 32.7191 38.7711 32.7191Z" stroke="white" stroke-width="3" stroke-linejoin="round"/>
<path d="M77.7965 32.7191C80.2212 32.7191 82.1867 34.6847 82.1867 37.1094C82.1867 39.534 80.2212 41.4996 77.7965 41.4996C75.3718 41.4996 73.4062 39.534 73.4062 37.1094C73.4062 34.6847 75.3718 32.7191 77.7965 32.7191Z" stroke="white" stroke-width="3" stroke-linejoin="round"/>
<path d="M74.9198 14.184H72.4297V23.9401H82.1858V19.6474L79.5969 16.4256C78.458 15.0084 76.7379 14.184 74.9198 14.184Z" stroke="white" stroke-width="3" stroke-linejoin="round"/>
<path d="M22.6734 25.8914H13.8929H7.06364M36.3319 18.0865H0.234375M22.6734 10.2816H10.9661" stroke="#4197B4" stroke-width="3"/>
</svg>
